# file written by OpenSceneGraph

mtllib physics_crate.mtl


g Transformable_0

g Transformable_Scene Root_0

o Transformable_Scene Root__Geometry_0
usemtl material_1

v -0.5 -0.5 -0.5
v -0.5 0.5 -0.5
v 0.5 0.5 -0.5
v 0.5 -0.5 -0.5
v -0.5 -0.5 0.5
v 0.5 -0.5 0.5
v 0.5 0.5 0.5
v -0.5 0.5 0.5
v -0.5 -0.5 -0.5
v 0.5 -0.5 -0.5
v 0.5 -0.5 0.5
v -0.5 -0.5 0.5
v 0.5 -0.5 -0.5
v 0.5 0.5 -0.5
v 0.5 0.5 0.5
v 0.5 -0.5 0.5
v 0.5 0.5 -0.5
v -0.5 0.5 -0.5
v -0.5 0.5 0.5
v 0.5 0.5 0.5
v -0.5 0.5 -0.5
v -0.5 -0.5 -0.5
v -0.5 -0.5 0.5
v -0.5 0.5 0.5
# 24 elements written

vn 0 0 -1
vn 0 0 -1
vn 0 0 -1
vn 0 0 -1
vn 0 0 1
vn 0 0 1
vn 0 0 1
vn 0 0 1
vn 0 -1 0
vn 0 -1 0
vn 0 -1 0
vn 0 -1 0
vn 1 0 0
vn 1 0 0
vn 1 0 0
vn 1 0 0
vn 0 1 0
vn 0 1 0
vn 0 1 0
vn 0 1 0
vn -1 0 0
vn -1 0 0
vn -1 0 0
vn -1 0 0
# 24 elements written

vt 1 0
vt 1 1
vt 0 1
vt 0 0
vt 0 0
vt 1 0
vt 1 1
vt 0 1
vt 0 0
vt 1 0
vt 1 1
vt 0 1
vt 0 0
vt 1 0
vt 1 1
vt 0 1
vt 0 0
vt 1 0
vt 1 1
vt 0 1
vt 0 0
vt 1 0
vt 1 1
vt 0 1
# 24 elements written
f 2/2/2 3/3/3 1/1/1 
f 3/3/3 4/4/4 1/1/1 
f 8/8/8 5/5/5 7/7/7 
f 5/5/5 6/6/6 7/7/7 
f 24/24/24 21/21/21 23/23/23 
f 21/21/21 22/22/22 23/23/23 
f 20/20/20 17/17/17 19/19/19 
f 17/17/17 18/18/18 19/19/19 
f 14/14/14 15/15/15 13/13/13 
f 15/15/15 16/16/16 13/13/13 
f 10/10/10 11/11/11 9/9/9 
f 11/11/11 12/12/12 9/9/9 
